G04*
G04 #@! TF.GenerationSoftware,Altium Limited,Altium Designer,21.6.1 (37)*
G04*
G04 Layer_Color=8388736*
%FSLAX25Y25*%
%MOIN*%
G70*
G04*
G04 #@! TF.SameCoordinates,FC2F02F7-AC22-4359-8BDB-CA83A4D5B66C*
G04*
G04*
G04 #@! TF.FilePolarity,Negative*
G04*
G01*
G75*
%ADD38R,0.08268X0.08268*%
%ADD39R,0.07087X0.06299*%
%ADD40R,0.02362X0.06102*%
%ADD41R,0.05118X0.03150*%
G04:AMPARAMS|DCode=42|XSize=47.24mil|YSize=43.31mil|CornerRadius=8.37mil|HoleSize=0mil|Usage=FLASHONLY|Rotation=0.000|XOffset=0mil|YOffset=0mil|HoleType=Round|Shape=RoundedRectangle|*
%AMROUNDEDRECTD42*
21,1,0.04724,0.02657,0,0,0.0*
21,1,0.03051,0.04331,0,0,0.0*
1,1,0.01673,0.01526,-0.01329*
1,1,0.01673,-0.01526,-0.01329*
1,1,0.01673,-0.01526,0.01329*
1,1,0.01673,0.01526,0.01329*
%
%ADD42ROUNDEDRECTD42*%
%ADD43R,0.12598X0.16535*%
G04:AMPARAMS|DCode=44|XSize=165.35mil|YSize=55.12mil|CornerRadius=8.66mil|HoleSize=0mil|Usage=FLASHONLY|Rotation=0.000|XOffset=0mil|YOffset=0mil|HoleType=Round|Shape=RoundedRectangle|*
%AMROUNDEDRECTD44*
21,1,0.16535,0.03780,0,0,0.0*
21,1,0.14803,0.05512,0,0,0.0*
1,1,0.01732,0.07402,-0.01890*
1,1,0.01732,-0.07402,-0.01890*
1,1,0.01732,-0.07402,0.01890*
1,1,0.01732,0.07402,0.01890*
%
%ADD44ROUNDEDRECTD44*%
%ADD45R,0.16535X0.12598*%
%ADD46O,0.04331X0.07874*%
%ADD47C,0.00787*%
%ADD48C,0.05906*%
D38*
X108661Y189370D02*
D03*
X118110Y189370D02*
D03*
X262205Y189370D02*
D03*
X271654Y189370D02*
D03*
D39*
X100787Y179724D02*
D03*
X125984D02*
D03*
X254331D02*
D03*
X279528D02*
D03*
D40*
X108268Y178839D02*
D03*
X110827D02*
D03*
X113386D02*
D03*
X115945D02*
D03*
X118504D02*
D03*
X261811D02*
D03*
X264370D02*
D03*
X266929D02*
D03*
X269488D02*
D03*
X272047D02*
D03*
D41*
X118701Y170276D02*
D03*
Y162795D02*
D03*
X108858D02*
D03*
Y166535D02*
D03*
Y170276D02*
D03*
X272244D02*
D03*
Y162795D02*
D03*
X262402D02*
D03*
Y166535D02*
D03*
Y170276D02*
D03*
D42*
X125591Y163583D02*
D03*
Y170276D02*
D03*
X279134Y163583D02*
D03*
Y170276D02*
D03*
D43*
X29528Y86614D02*
D03*
X9843Y70866D02*
D03*
Y118110D02*
D03*
X29528Y133858D02*
D03*
Y43307D02*
D03*
X9843Y169291D02*
D03*
X29528Y185039D02*
D03*
X9843Y27559D02*
D03*
X183071Y86614D02*
D03*
X163386Y70866D02*
D03*
Y118110D02*
D03*
X183071Y133858D02*
D03*
Y43307D02*
D03*
X163386Y169291D02*
D03*
X183071Y185039D02*
D03*
X163386Y27559D02*
D03*
D44*
X129685Y141654D02*
D03*
Y131653D02*
D03*
X81496Y21654D02*
D03*
Y11654D02*
D03*
X129685Y121653D02*
D03*
Y111653D02*
D03*
Y101654D02*
D03*
Y91654D02*
D03*
Y81653D02*
D03*
Y71653D02*
D03*
Y61654D02*
D03*
Y51653D02*
D03*
Y41653D02*
D03*
Y31653D02*
D03*
Y21654D02*
D03*
Y11654D02*
D03*
Y151654D02*
D03*
X81496Y31653D02*
D03*
Y41653D02*
D03*
Y51653D02*
D03*
Y61654D02*
D03*
Y71653D02*
D03*
Y81653D02*
D03*
Y91654D02*
D03*
Y101654D02*
D03*
Y111653D02*
D03*
Y121653D02*
D03*
Y131653D02*
D03*
Y141654D02*
D03*
Y151654D02*
D03*
X283228Y141654D02*
D03*
Y131653D02*
D03*
X235039Y21654D02*
D03*
Y11654D02*
D03*
X283228Y121653D02*
D03*
Y111653D02*
D03*
Y101654D02*
D03*
Y91654D02*
D03*
Y81653D02*
D03*
Y71653D02*
D03*
Y61654D02*
D03*
Y51653D02*
D03*
Y41653D02*
D03*
Y31653D02*
D03*
Y21654D02*
D03*
Y11654D02*
D03*
Y151654D02*
D03*
X235039Y31653D02*
D03*
Y41653D02*
D03*
Y51653D02*
D03*
Y61654D02*
D03*
Y71653D02*
D03*
Y81653D02*
D03*
Y91654D02*
D03*
Y101654D02*
D03*
Y111653D02*
D03*
Y121653D02*
D03*
Y131653D02*
D03*
Y141654D02*
D03*
Y151654D02*
D03*
D45*
X9843Y7874D02*
D03*
X29528D02*
D03*
X163386D02*
D03*
X183071D02*
D03*
D46*
X126378Y189370D02*
D03*
X100394D02*
D03*
X279921D02*
D03*
X253937D02*
D03*
D47*
X106299Y137795D02*
D03*
Y11811D02*
D03*
X58661Y49213D02*
D03*
Y101969D02*
D03*
X51024Y192402D02*
D03*
X58661Y154724D02*
D03*
X259842Y137795D02*
D03*
Y11811D02*
D03*
X212205Y49213D02*
D03*
Y101969D02*
D03*
X204567Y192402D02*
D03*
X212205Y154724D02*
D03*
D48*
X51575Y43701D02*
D03*
X61575Y38701D02*
D03*
X51575Y33701D02*
D03*
X61575Y28701D02*
D03*
X51575Y23701D02*
D03*
X61575Y18701D02*
D03*
X51575Y13701D02*
D03*
X61575Y8701D02*
D03*
Y61457D02*
D03*
X51575Y66457D02*
D03*
X61575Y71457D02*
D03*
X51575Y76457D02*
D03*
X61575Y81457D02*
D03*
X51575Y86457D02*
D03*
X61575Y91457D02*
D03*
X51575Y96457D02*
D03*
X53937Y171890D02*
D03*
X43937Y176890D02*
D03*
X53937Y181890D02*
D03*
X43937Y186890D02*
D03*
X61575Y114213D02*
D03*
X51575Y119213D02*
D03*
X61575Y124213D02*
D03*
X51575Y129213D02*
D03*
X61575Y134213D02*
D03*
X51575Y139213D02*
D03*
X61575Y144213D02*
D03*
X51575Y149213D02*
D03*
X205118Y43701D02*
D03*
X215118Y38701D02*
D03*
X205118Y33701D02*
D03*
X215118Y28701D02*
D03*
X205118Y23701D02*
D03*
X215118Y18701D02*
D03*
X205118Y13701D02*
D03*
X215118Y8701D02*
D03*
Y61457D02*
D03*
X205118Y66457D02*
D03*
X215118Y71457D02*
D03*
X205118Y76457D02*
D03*
X215118Y81457D02*
D03*
X205118Y86457D02*
D03*
X215118Y91457D02*
D03*
X205118Y96457D02*
D03*
X207480Y171890D02*
D03*
X197480Y176890D02*
D03*
X207480Y181890D02*
D03*
X197480Y186890D02*
D03*
X215118Y114213D02*
D03*
X205118Y119213D02*
D03*
X215118Y124213D02*
D03*
X205118Y129213D02*
D03*
X215118Y134213D02*
D03*
X205118Y139213D02*
D03*
X215118Y144213D02*
D03*
X205118Y149213D02*
D03*
M02*
