G04*
G04 #@! TF.GenerationSoftware,Altium Limited,Altium Designer,21.6.1 (37)*
G04*
G04 Layer_Color=8421504*
%FSLAX25Y25*%
%MOIN*%
G70*
G04*
G04 #@! TF.SameCoordinates,FC2F02F7-AC22-4359-8BDB-CA83A4D5B66C*
G04*
G04*
G04 #@! TF.FilePolarity,Positive*
G04*
G01*
G75*
%ADD15R,0.07480X0.07480*%
%ADD16R,0.06299X0.05512*%
%ADD17R,0.01575X0.05315*%
%ADD18R,0.04331X0.02362*%
G04:AMPARAMS|DCode=19|XSize=39.37mil|YSize=35.43mil|CornerRadius=4.43mil|HoleSize=0mil|Usage=FLASHONLY|Rotation=0.000|XOffset=0mil|YOffset=0mil|HoleType=Round|Shape=RoundedRectangle|*
%AMROUNDEDRECTD19*
21,1,0.03937,0.02657,0,0,0.0*
21,1,0.03051,0.03543,0,0,0.0*
1,1,0.00886,0.01526,-0.01329*
1,1,0.00886,-0.01526,-0.01329*
1,1,0.00886,-0.01526,0.01329*
1,1,0.00886,0.01526,0.01329*
%
%ADD19ROUNDEDRECTD19*%
%ADD20R,0.11811X0.15748*%
G04:AMPARAMS|DCode=21|XSize=157.48mil|YSize=47.24mil|CornerRadius=4.72mil|HoleSize=0mil|Usage=FLASHONLY|Rotation=0.000|XOffset=0mil|YOffset=0mil|HoleType=Round|Shape=RoundedRectangle|*
%AMROUNDEDRECTD21*
21,1,0.15748,0.03780,0,0,0.0*
21,1,0.14803,0.04724,0,0,0.0*
1,1,0.00945,0.07402,-0.01890*
1,1,0.00945,-0.07402,-0.01890*
1,1,0.00945,-0.07402,0.01890*
1,1,0.00945,0.07402,0.01890*
%
%ADD21ROUNDEDRECTD21*%
%ADD22R,0.15748X0.11811*%
D15*
X108661Y189370D02*
D03*
X118110Y189370D02*
D03*
X262205Y189370D02*
D03*
X271654Y189370D02*
D03*
D16*
X100787Y179724D02*
D03*
X125984D02*
D03*
X254331D02*
D03*
X279528D02*
D03*
D17*
X108268Y178839D02*
D03*
X110827D02*
D03*
X113386D02*
D03*
X115945D02*
D03*
X118504D02*
D03*
X261811D02*
D03*
X264370D02*
D03*
X266929D02*
D03*
X269488D02*
D03*
X272047D02*
D03*
D18*
X118701Y170276D02*
D03*
Y162795D02*
D03*
X108858D02*
D03*
Y166535D02*
D03*
Y170276D02*
D03*
X272244D02*
D03*
Y162795D02*
D03*
X262402D02*
D03*
Y166535D02*
D03*
Y170276D02*
D03*
D19*
X125591Y163583D02*
D03*
Y170276D02*
D03*
X279134Y163583D02*
D03*
Y170276D02*
D03*
D20*
X29528Y86614D02*
D03*
X9843Y70866D02*
D03*
Y118110D02*
D03*
X29528Y133858D02*
D03*
Y43307D02*
D03*
X9843Y169291D02*
D03*
X29528Y185039D02*
D03*
X9843Y27559D02*
D03*
X183071Y86614D02*
D03*
X163386Y70866D02*
D03*
Y118110D02*
D03*
X183071Y133858D02*
D03*
Y43307D02*
D03*
X163386Y169291D02*
D03*
X183071Y185039D02*
D03*
X163386Y27559D02*
D03*
D21*
X129685Y141654D02*
D03*
Y131653D02*
D03*
X81496Y21654D02*
D03*
Y11654D02*
D03*
X129685Y121653D02*
D03*
Y111653D02*
D03*
Y101654D02*
D03*
Y91654D02*
D03*
Y81653D02*
D03*
Y71653D02*
D03*
Y61654D02*
D03*
Y51653D02*
D03*
Y41653D02*
D03*
Y31653D02*
D03*
Y21654D02*
D03*
Y11654D02*
D03*
Y151654D02*
D03*
X81496Y31653D02*
D03*
Y41653D02*
D03*
Y51653D02*
D03*
Y61654D02*
D03*
Y71653D02*
D03*
Y81653D02*
D03*
Y91654D02*
D03*
Y101654D02*
D03*
Y111653D02*
D03*
Y121653D02*
D03*
Y131653D02*
D03*
Y141654D02*
D03*
Y151654D02*
D03*
X283228Y141654D02*
D03*
Y131653D02*
D03*
X235039Y21654D02*
D03*
Y11654D02*
D03*
X283228Y121653D02*
D03*
Y111653D02*
D03*
Y101654D02*
D03*
Y91654D02*
D03*
Y81653D02*
D03*
Y71653D02*
D03*
Y61654D02*
D03*
Y51653D02*
D03*
Y41653D02*
D03*
Y31653D02*
D03*
Y21654D02*
D03*
Y11654D02*
D03*
Y151654D02*
D03*
X235039Y31653D02*
D03*
Y41653D02*
D03*
Y51653D02*
D03*
Y61654D02*
D03*
Y71653D02*
D03*
Y81653D02*
D03*
Y91654D02*
D03*
Y101654D02*
D03*
Y111653D02*
D03*
Y121653D02*
D03*
Y131653D02*
D03*
Y141654D02*
D03*
Y151654D02*
D03*
D22*
X9843Y7874D02*
D03*
X29528D02*
D03*
X163386D02*
D03*
X183071D02*
D03*
M02*
