G04*
G04 #@! TF.GenerationSoftware,Altium Limited,Altium Designer,21.6.1 (37)*
G04*
G04 Layer_Color=16711935*
%FSLAX25Y25*%
%MOIN*%
G70*
G04*
G04 #@! TF.SameCoordinates,FC2F02F7-AC22-4359-8BDB-CA83A4D5B66C*
G04*
G04*
G04 #@! TF.FilePolarity,Negative*
G04*
G01*
G75*
G04:AMPARAMS|DCode=42|XSize=47.24mil|YSize=43.31mil|CornerRadius=8.37mil|HoleSize=0mil|Usage=FLASHONLY|Rotation=0.000|XOffset=0mil|YOffset=0mil|HoleType=Round|Shape=RoundedRectangle|*
%AMROUNDEDRECTD42*
21,1,0.04724,0.02657,0,0,0.0*
21,1,0.03051,0.04331,0,0,0.0*
1,1,0.01673,0.01526,-0.01329*
1,1,0.01673,-0.01526,-0.01329*
1,1,0.01673,-0.01526,0.01329*
1,1,0.01673,0.01526,0.01329*
%
%ADD42ROUNDEDRECTD42*%
%ADD46O,0.04331X0.07874*%
%ADD47C,0.00787*%
%ADD48C,0.05906*%
G04:AMPARAMS|DCode=49|XSize=47.24mil|YSize=43.31mil|CornerRadius=8.37mil|HoleSize=0mil|Usage=FLASHONLY|Rotation=90.000|XOffset=0mil|YOffset=0mil|HoleType=Round|Shape=RoundedRectangle|*
%AMROUNDEDRECTD49*
21,1,0.04724,0.02657,0,0,90.0*
21,1,0.03051,0.04331,0,0,90.0*
1,1,0.01673,0.01329,0.01526*
1,1,0.01673,0.01329,-0.01526*
1,1,0.01673,-0.01329,-0.01526*
1,1,0.01673,-0.01329,0.01526*
%
%ADD49ROUNDEDRECTD49*%
%ADD50O,0.06890X0.03150*%
%ADD51R,0.06890X0.03150*%
%ADD52R,0.04724X0.03386*%
G04:AMPARAMS|DCode=53|XSize=47.24mil|YSize=33.86mil|CornerRadius=10.43mil|HoleSize=0mil|Usage=FLASHONLY|Rotation=0.000|XOffset=0mil|YOffset=0mil|HoleType=Round|Shape=RoundedRectangle|*
%AMROUNDEDRECTD53*
21,1,0.04724,0.01299,0,0,0.0*
21,1,0.02638,0.03386,0,0,0.0*
1,1,0.02087,0.01319,-0.00650*
1,1,0.02087,-0.01319,-0.00650*
1,1,0.02087,-0.01319,0.00650*
1,1,0.02087,0.01319,0.00650*
%
%ADD53ROUNDEDRECTD53*%
%ADD54R,0.18587X0.18987*%
%ADD55R,0.03187X0.07287*%
D42*
X20079Y185236D02*
D03*
Y178543D02*
D03*
X173622Y185236D02*
D03*
Y178543D02*
D03*
D46*
X126378Y189370D02*
D03*
X100394D02*
D03*
X279921D02*
D03*
X253937D02*
D03*
D47*
X106299Y137795D02*
D03*
Y11811D02*
D03*
X58661Y49213D02*
D03*
Y101969D02*
D03*
X51024Y192402D02*
D03*
X58661Y154724D02*
D03*
X259842Y137795D02*
D03*
Y11811D02*
D03*
X212205Y49213D02*
D03*
Y101969D02*
D03*
X204567Y192402D02*
D03*
X212205Y154724D02*
D03*
D48*
X51575Y43701D02*
D03*
X61575Y38701D02*
D03*
X51575Y33701D02*
D03*
X61575Y28701D02*
D03*
X51575Y23701D02*
D03*
X61575Y18701D02*
D03*
X51575Y13701D02*
D03*
X61575Y8701D02*
D03*
Y61457D02*
D03*
X51575Y66457D02*
D03*
X61575Y71457D02*
D03*
X51575Y76457D02*
D03*
X61575Y81457D02*
D03*
X51575Y86457D02*
D03*
X61575Y91457D02*
D03*
X51575Y96457D02*
D03*
X53937Y171890D02*
D03*
X43937Y176890D02*
D03*
X53937Y181890D02*
D03*
X43937Y186890D02*
D03*
X61575Y114213D02*
D03*
X51575Y119213D02*
D03*
X61575Y124213D02*
D03*
X51575Y129213D02*
D03*
X61575Y134213D02*
D03*
X51575Y139213D02*
D03*
X61575Y144213D02*
D03*
X51575Y149213D02*
D03*
X205118Y43701D02*
D03*
X215118Y38701D02*
D03*
X205118Y33701D02*
D03*
X215118Y28701D02*
D03*
X205118Y23701D02*
D03*
X215118Y18701D02*
D03*
X205118Y13701D02*
D03*
X215118Y8701D02*
D03*
Y61457D02*
D03*
X205118Y66457D02*
D03*
X215118Y71457D02*
D03*
X205118Y76457D02*
D03*
X215118Y81457D02*
D03*
X205118Y86457D02*
D03*
X215118Y91457D02*
D03*
X205118Y96457D02*
D03*
X207480Y171890D02*
D03*
X197480Y176890D02*
D03*
X207480Y181890D02*
D03*
X197480Y186890D02*
D03*
X215118Y114213D02*
D03*
X205118Y119213D02*
D03*
X215118Y124213D02*
D03*
X205118Y129213D02*
D03*
X215118Y134213D02*
D03*
X205118Y139213D02*
D03*
X215118Y144213D02*
D03*
X205118Y149213D02*
D03*
D49*
X90945Y191929D02*
D03*
X84252D02*
D03*
X65354Y192913D02*
D03*
X58661D02*
D03*
X4134Y180315D02*
D03*
X10827D02*
D03*
X244488Y191929D02*
D03*
X237795D02*
D03*
X218898Y192913D02*
D03*
X212205D02*
D03*
X157677Y180315D02*
D03*
X164370D02*
D03*
D50*
X63386Y172087D02*
D03*
Y177087D02*
D03*
Y182087D02*
D03*
Y187087D02*
D03*
X84646Y172087D02*
D03*
Y177087D02*
D03*
Y182087D02*
D03*
X216929Y172087D02*
D03*
Y177087D02*
D03*
Y182087D02*
D03*
Y187087D02*
D03*
X238189Y172087D02*
D03*
Y177087D02*
D03*
Y182087D02*
D03*
D51*
X84646Y187087D02*
D03*
X238189D02*
D03*
D52*
X4213Y185433D02*
D03*
X157756D02*
D03*
D53*
X4213Y189173D02*
D03*
Y192913D02*
D03*
X14567Y185433D02*
D03*
Y192913D02*
D03*
X157756Y189173D02*
D03*
Y192913D02*
D03*
X168110Y185433D02*
D03*
Y192913D02*
D03*
D54*
X9980Y149140D02*
D03*
X163524D02*
D03*
D55*
X17480Y164173D02*
D03*
X12480D02*
D03*
X7480D02*
D03*
X2480D02*
D03*
X171024D02*
D03*
X166024D02*
D03*
X161024D02*
D03*
X156024D02*
D03*
M02*
