M48
;Layer_Color=9474304
;FILE_FORMAT=2:5
INCH,LZ
;TYPE=PLATED
T1F00S00C0.01181
T2F00S00C0.01968
T4F00S00C0.03150
;TYPE=NON_PLATED
T5F00S00C0.05906
T6F00S00C0.11811
%
T01
X0277165Y0021654
Y0025984
X0276772Y0042913
Y0046063
Y0052756
Y0056299
Y0072835
Y0075984
Y0082677
Y0086221
Y0102756
Y0106299
X027126Y0111417
X0268504Y0109843
X0222441Y0088583
X0219291Y008937
X0123228Y0086221
Y0082677
Y0075984
Y0072835
Y0056299
Y0052756
Y0046063
Y0042913
X0123622Y0025984
Y0021654
X0123228Y0102756
Y0106299
X0117717Y0111417
X0114961Y0109843
X0068898Y0088583
X0065748Y008937
X0067716Y0119291
X0070866Y011811
X007559Y0121653
X0087795
X0093701Y0117718
X009685Y011811
X0106299Y0166535
X0104331Y0172441
X0107613Y01746
X0102756Y0181102
X0098819Y0178347
X0106299Y0187008
X0111024
Y0191732
X0106299
X0090945Y0191929
X0084252
X0086516Y0172087
X0061024Y0172047
X0058661Y0192913
X0020079Y0178543
X0010827Y0180315
X0002362Y018937
X0115748Y0191732
Y0187008
X0120472
Y0191732
X0124016Y0181102
X0127953Y0178347
X0125591Y0170276
Y0163583
X0123622Y0141339
X0135433
X0130315Y0120866
Y0117323
X022126Y0119291
X0224409Y011811
X0229134Y0121653
X0241339
X0247245Y0117718
X0250394Y011811
X0259842Y0166535
X0257874Y0172441
X0261156Y01746
X0256299Y0181102
X0252362Y0178347
X0259842Y0187008
X0264567
X0269291
Y0191732
X0264567
X0259842
X0244488Y0191929
X0237795
X0240059Y0172087
X0214567Y0172047
X0212205Y0192913
X0173622Y0178543
X016437Y0180315
X0155905Y018937
X0274016Y0191732
Y0187008
X0277559Y0181102
X0281496Y0178347
X0279134Y0170276
Y0163583
X0277165Y0141339
X0288976
X0283858Y0120866
Y0117323
T02
X015748Y0003937
X0161417
X0165354
X0169291
X0167323Y0007874
X0163386
X0159449
X015748Y0011811
X0161417
X0165354
X0169291
X0177165
X0181102
X0185039
X0188976
X0187008Y0007874
X0183071
X0179134
X0177165Y0003937
X0181102
X0185039
X0188976
X0187008Y0037402
Y0041339
Y0045276
Y0049213
X0183071Y0047244
Y0043307
Y003937
X0179134Y0041339
Y0045276
Y0049213
Y0037402
X0167323Y0033465
Y0029528
Y0025591
Y0021654
X0163386Y0023622
Y0027559
Y0031496
X0159449Y0029528
Y0033465
Y0025591
Y0021654
Y0064961
Y0068898
Y0072835
Y0076772
X0163386Y0074803
Y0070866
Y0066929
X0167323Y0068898
Y0072835
Y0076772
Y0064961
X0179134Y0080709
Y0084646
Y0088583
Y009252
X0183071Y0090551
Y0086614
Y0082677
X0187008Y0084646
Y0088583
Y009252
Y0080709
X0167323Y0112205
X0163386Y0114173
X0159449Y0112205
X0033465Y009252
Y0088583
Y0084646
Y0080709
X0029528Y0082677
Y0086614
Y0090551
X0025591Y0088583
Y0084646
Y0080709
Y009252
X001378Y0076772
Y0072835
Y0068898
Y0064961
X0009843Y0066929
Y0070866
Y0074803
X0005906Y0072835
Y0068898
Y0064961
Y0076772
Y0112205
X0009843Y0114173
X001378Y0112205
X0025591Y0049213
Y0045276
Y0041339
Y0037402
X0029528Y003937
Y0043307
Y0047244
X0033465Y0045276
Y0041339
Y0037402
Y0049213
X001378Y0033465
Y0029528
Y0025591
Y0021654
X0009843Y0023622
Y0027559
Y0031496
X0005906Y0029528
Y0033465
Y0025591
Y0021654
X0003937Y0011811
X0007874
X0011811
X0015748
X001378Y0007874
X0009843
X0005906
X0003937Y0003937
X0007874
X0011811
X0015748
X0023622
X0027559
X0031496
X0035433
X0033465Y0007874
X0029528
X0025591
X0023622Y0011811
X0027559
X0031496
X0035433
X0033465Y0127953
Y013189
Y0135827
Y0139764
X0029528Y0137795
Y0133858
Y0129921
X0025591Y013189
Y0127953
Y0135827
Y0139764
X0015748Y0143701
X0012795Y0146653
X0015748Y0149606
X0012795Y0152559
X0015748Y0155512
X0009843
X000689Y0152559
X0003937Y0155512
Y0149606
X000689Y0146653
X0003937Y0143701
X0009843
Y0149606
Y0165354
Y0169291
Y0173228
X0005906Y017126
Y0167323
Y0163386
X001378
Y0167323
Y017126
Y0175197
X0005906
X0025591Y0179134
Y0183071
Y0187008
Y0190945
X0029528Y0188976
Y0185039
Y0181102
X0033465Y0183071
Y0187008
Y0190945
Y0179134
X001378Y0124016
Y0120079
Y0116142
X0009843Y011811
Y0122047
X0005906Y0120079
Y0116142
Y0124016
X0159449
Y0120079
Y0116142
X0163386Y011811
Y0122047
X0167323Y0120079
Y0124016
Y0116142
X0179134Y0127953
Y013189
Y0135827
Y0139764
X0183071Y0137795
Y0133858
Y0129921
X0187008Y013189
Y0135827
Y0139764
Y0127953
X0169291Y0143701
X0166339Y0146653
X0169291Y0149606
X0166339Y0152559
X0169291Y0155512
X0163386
X0160433Y0152559
X015748Y0155512
Y0149606
X0160433Y0146653
X015748Y0143701
X0163386
Y0149606
Y0165354
Y0169291
Y0173228
X0159449Y017126
Y0167323
Y0163386
X0167323
Y0167323
Y017126
Y0175197
X0159449
X0179134Y0179134
Y0183071
Y0187008
Y0190945
X0183071Y0188976
Y0185039
Y0181102
X0187008Y0183071
Y0187008
Y0190945
Y0179134
T04
X0205118Y0013701
Y0023701
Y0033701
Y0043701
X0215118Y0038701
Y0028701
Y0018701
Y0008701
Y0061457
Y0071457
Y0081457
Y0091457
X0205118Y0086457
Y0076457
Y0066457
Y0096457
X0215118Y0114213
X0061575
Y0091457
Y0081457
Y0071457
Y0061457
X0051575Y0066457
Y0076457
Y0086457
Y0096457
Y0043701
Y0033701
Y0023701
Y0013701
X0061575Y0018701
Y0028701
Y0038701
Y0008701
Y0124213
Y0134213
Y0144213
X0051575Y0139213
Y0129213
Y0119213
Y0149213
X0053937Y017189
Y018189
X0043937Y017689
Y018689
X019748
Y017689
X020748Y017189
Y018189
X0205118Y0149213
Y0139213
Y0129213
Y0119213
X0215118Y0124213
Y0134213
Y0144213
T05
X0212205Y0049213
Y0101969
X0058661
Y0049213
Y0154724
X0051024Y0192402
X0204567
X0212205Y0154724
T06
X0259842Y0011811
X0106299
Y0137795
X0259842
M30
