G04*
G04 #@! TF.GenerationSoftware,Altium Limited,Altium Designer,21.6.1 (37)*
G04*
G04 Layer_Color=65535*
%FSLAX25Y25*%
%MOIN*%
G70*
G04*
G04 #@! TF.SameCoordinates,FC2F02F7-AC22-4359-8BDB-CA83A4D5B66C*
G04*
G04*
G04 #@! TF.FilePolarity,Positive*
G04*
G01*
G75*
%ADD14C,0.01181*%
%ADD36C,0.00787*%
%ADD37C,0.00500*%
D14*
X110236Y173425D02*
G03*
X110236Y173425I-394J0D01*
G01*
X37006Y169818D02*
Y174016D01*
X30709D01*
Y169818D01*
X33857Y174016D02*
Y171917D01*
X35956Y163521D02*
X37006Y164570D01*
Y166669D01*
X35956Y167719D01*
X34907D01*
X33857Y166669D01*
Y164570D01*
X32808Y163521D01*
X31758D01*
X30709Y164570D01*
Y166669D01*
X31758Y167719D01*
X35956Y157223D02*
X37006Y158273D01*
Y160372D01*
X35956Y161421D01*
X31758D01*
X30709Y160372D01*
Y158273D01*
X31758Y157223D01*
X37402Y138583D02*
X43699D01*
X41600Y136484D01*
X43699Y134385D01*
X37402D01*
X42649Y132285D02*
X43699Y131236D01*
Y129137D01*
X42649Y128087D01*
X41600D01*
X40550Y129137D01*
Y130186D01*
Y129137D01*
X39501Y128087D01*
X38451D01*
X37402Y129137D01*
Y131236D01*
X38451Y132285D01*
X37402Y85433D02*
X43699D01*
X41600Y83334D01*
X43699Y81235D01*
X37402D01*
Y74938D02*
Y79136D01*
X41600Y74938D01*
X42649D01*
X43699Y75987D01*
Y78086D01*
X42649Y79136D01*
X37402Y32283D02*
X43699D01*
X41600Y30184D01*
X43699Y28085D01*
X37402D01*
Y25986D02*
Y23887D01*
Y24937D01*
X43699D01*
X42649Y25986D01*
X263779Y173425D02*
G03*
X263779Y173425I-394J0D01*
G01*
X190549Y169818D02*
Y174016D01*
X184252D01*
Y169818D01*
X187400Y174016D02*
Y171917D01*
X189500Y163521D02*
X190549Y164570D01*
Y166669D01*
X189500Y167719D01*
X188450D01*
X187400Y166669D01*
Y164570D01*
X186351Y163521D01*
X185301D01*
X184252Y164570D01*
Y166669D01*
X185301Y167719D01*
X189500Y157223D02*
X190549Y158273D01*
Y160372D01*
X189500Y161421D01*
X185301D01*
X184252Y160372D01*
Y158273D01*
X185301Y157223D01*
X190945Y138583D02*
X197242D01*
X195143Y136484D01*
X197242Y134385D01*
X190945D01*
X196193Y132285D02*
X197242Y131236D01*
Y129137D01*
X196193Y128087D01*
X195143D01*
X194094Y129137D01*
Y130186D01*
Y129137D01*
X193044Y128087D01*
X191994D01*
X190945Y129137D01*
Y131236D01*
X191994Y132285D01*
X190945Y85433D02*
X197242D01*
X195143Y83334D01*
X197242Y81235D01*
X190945D01*
Y74938D02*
Y79136D01*
X195143Y74938D01*
X196193D01*
X197242Y75987D01*
Y78086D01*
X196193Y79136D01*
X190945Y32283D02*
X197242D01*
X195143Y30184D01*
X197242Y28085D01*
X190945D01*
Y25986D02*
Y23887D01*
Y24937D01*
X197242D01*
X196193Y25986D01*
D36*
X112008Y172244D02*
X115551D01*
X112008Y160827D02*
X115551D01*
X116929Y165157D02*
Y167913D01*
X7874Y37008D02*
Y40157D01*
X6299Y38583D02*
X9449D01*
X7874Y80315D02*
Y83465D01*
X6299Y81890D02*
X9449D01*
X7874Y127559D02*
Y130709D01*
X6299Y129134D02*
X9449D01*
X7874Y178740D02*
Y181890D01*
X6299Y180315D02*
X9449D01*
X265551Y172244D02*
X269094D01*
X265551Y160827D02*
X269094D01*
X270472Y165157D02*
Y167913D01*
X161417Y37008D02*
Y40157D01*
X159843Y38583D02*
X162992D01*
X161417Y80315D02*
Y83465D01*
X159843Y81890D02*
X162992D01*
X161417Y127559D02*
Y130709D01*
X159843Y129134D02*
X162992D01*
X161417Y178740D02*
Y181890D01*
X159843Y180315D02*
X162992D01*
D37*
X123716Y167629D02*
X127465D01*
X123716Y166229D02*
X127465D01*
X277259Y167629D02*
X281009D01*
X277259Y166229D02*
X281009D01*
M02*
