G04*
G04 #@! TF.GenerationSoftware,Altium Limited,Altium Designer,21.6.1 (37)*
G04*
G04 Layer_Physical_Order=4*
G04 Layer_Color=16711680*
%FSLAX25Y25*%
%MOIN*%
G70*
G04*
G04 #@! TF.SameCoordinates,FC2F02F7-AC22-4359-8BDB-CA83A4D5B66C*
G04*
G04*
G04 #@! TF.FilePolarity,Positive*
G04*
G01*
G75*
%ADD10C,0.01968*%
%ADD11C,0.03150*%
%ADD12C,0.03150*%
%ADD14C,0.01181*%
G04:AMPARAMS|DCode=19|XSize=39.37mil|YSize=35.43mil|CornerRadius=4.43mil|HoleSize=0mil|Usage=FLASHONLY|Rotation=0.000|XOffset=0mil|YOffset=0mil|HoleType=Round|Shape=RoundedRectangle|*
%AMROUNDEDRECTD19*
21,1,0.03937,0.02657,0,0,0.0*
21,1,0.03051,0.03543,0,0,0.0*
1,1,0.00886,0.01526,-0.01329*
1,1,0.00886,-0.01526,-0.01329*
1,1,0.00886,-0.01526,0.01329*
1,1,0.00886,0.01526,0.01329*
%
%ADD19ROUNDEDRECTD19*%
%ADD24O,0.03543X0.07087*%
%ADD25C,0.05118*%
%ADD26C,0.02362*%
%ADD27C,0.03937*%
G04:AMPARAMS|DCode=28|XSize=39.37mil|YSize=35.43mil|CornerRadius=4.43mil|HoleSize=0mil|Usage=FLASHONLY|Rotation=90.000|XOffset=0mil|YOffset=0mil|HoleType=Round|Shape=RoundedRectangle|*
%AMROUNDEDRECTD28*
21,1,0.03937,0.02657,0,0,90.0*
21,1,0.03051,0.03543,0,0,90.0*
1,1,0.00886,0.01329,0.01526*
1,1,0.00886,0.01329,-0.01526*
1,1,0.00886,-0.01329,-0.01526*
1,1,0.00886,-0.01329,0.01526*
%
%ADD28ROUNDEDRECTD28*%
%ADD29O,0.06102X0.02362*%
%ADD30R,0.06102X0.02362*%
%ADD31R,0.03937X0.02598*%
G04:AMPARAMS|DCode=32|XSize=39.37mil|YSize=25.98mil|CornerRadius=6.5mil|HoleSize=0mil|Usage=FLASHONLY|Rotation=0.000|XOffset=0mil|YOffset=0mil|HoleType=Round|Shape=RoundedRectangle|*
%AMROUNDEDRECTD32*
21,1,0.03937,0.01299,0,0,0.0*
21,1,0.02638,0.02598,0,0,0.0*
1,1,0.01299,0.01319,-0.00650*
1,1,0.01299,-0.01319,-0.00650*
1,1,0.01299,-0.01319,0.00650*
1,1,0.01299,0.01319,0.00650*
%
%ADD32ROUNDEDRECTD32*%
%ADD33R,0.17800X0.18200*%
%ADD34R,0.02400X0.06500*%
%ADD35C,0.02362*%
G36*
X187698Y193362D02*
X188284Y192971D01*
X188596Y192503D01*
X192127Y184522D01*
X192178Y184449D01*
X192612Y183637D01*
X192913Y183270D01*
Y803D01*
X173228D01*
Y179528D01*
X175591D01*
X176378Y180315D01*
Y183465D01*
X176325Y183518D01*
X176402Y183907D01*
Y186304D01*
X177070Y191483D01*
X177332Y192115D01*
X177768Y192684D01*
X178337Y193120D01*
X178999Y193394D01*
X179677Y193484D01*
X179711Y193477D01*
X179711Y193477D01*
D01*
X179711D01*
X187008D01*
X187064Y193488D01*
X187698Y193362D01*
D02*
G37*
G36*
X34155D02*
X34741Y192971D01*
X35053Y192503D01*
X38584Y184522D01*
X38635Y184449D01*
X39069Y183637D01*
X39370Y183270D01*
Y803D01*
X19685D01*
Y179528D01*
X22047D01*
X22835Y180315D01*
Y183465D01*
X22781Y183518D01*
X22859Y183907D01*
Y186304D01*
X23527Y191483D01*
X23789Y192115D01*
X24225Y192684D01*
X24793Y193120D01*
X25456Y193394D01*
X26134Y193484D01*
X26168Y193477D01*
X26168Y193477D01*
D01*
X26168D01*
X33465D01*
X33521Y193488D01*
X34155Y193362D01*
D02*
G37*
G36*
X172425Y174819D02*
Y168211D01*
X169036D01*
Y160630D01*
X154346D01*
Y177165D01*
X170079D01*
X172425Y174819D01*
D02*
G37*
G36*
X18882D02*
Y168211D01*
X15493D01*
Y160630D01*
X803D01*
Y177165D01*
X16535D01*
X18882Y174819D01*
D02*
G37*
G36*
X172425Y803D02*
X154346D01*
Y158268D01*
X172425D01*
Y803D01*
D02*
G37*
G36*
X18882D02*
X803D01*
Y158268D01*
X18882D01*
Y803D01*
D02*
G37*
D10*
X56732Y114213D02*
G03*
X57856Y111111I4843J0D01*
G01*
X63759Y100773D02*
G03*
X62683Y105322I-5098J1195D01*
G01*
X57338Y136558D02*
G03*
X56732Y134213I4237J-2345D01*
G01*
Y114213D02*
Y134213D01*
X57856Y111111D02*
X62683Y105322D01*
X84332Y187284D02*
X84646Y187087D01*
X84332Y187284D02*
Y190945D01*
X84252Y191929D02*
X84332Y190945D01*
X65022Y187087D02*
Y191929D01*
X65354Y192913D01*
X63386Y187087D02*
X65022D01*
X17480Y164173D02*
X21654D01*
X57338Y136558D02*
X61575Y144213D01*
Y91457D02*
X63759Y100773D01*
X210276Y114213D02*
G03*
X211399Y111111I4843J0D01*
G01*
X217303Y100773D02*
G03*
X216226Y105322I-5098J1195D01*
G01*
X210881Y136558D02*
G03*
X210276Y134213I4237J-2345D01*
G01*
Y114213D02*
Y134213D01*
X211399Y111111D02*
X216226Y105322D01*
X237875Y187284D02*
X238189Y187087D01*
X237875Y187284D02*
Y190945D01*
X237795Y191929D02*
X237875Y190945D01*
X218565Y187087D02*
Y191929D01*
X218898Y192913D01*
X216929Y187087D02*
X218565D01*
X171024Y164173D02*
X175197D01*
X210881Y136558D02*
X215118Y144213D01*
Y91457D02*
X217303Y100773D01*
D11*
X125591Y163583D02*
X130315Y120866D01*
X4331Y179921D02*
X5906Y175197D01*
X4134Y180315D02*
X4331Y179921D01*
X279134Y163583D02*
X283858Y120866D01*
X157874Y179921D02*
X159449Y175197D01*
X157677Y180315D02*
X157874Y179921D01*
D12*
X25591Y187008D02*
D03*
Y183071D02*
D03*
X29528Y188976D02*
D03*
X12795Y146653D02*
D03*
X6890D02*
D03*
Y152559D02*
D03*
X12795D02*
D03*
X15748Y149606D02*
D03*
Y143701D02*
D03*
X9843D02*
D03*
X3937D02*
D03*
Y149606D02*
D03*
X15748Y155512D02*
D03*
X3937D02*
D03*
X9843D02*
D03*
Y149606D02*
D03*
Y169291D02*
D03*
Y173228D02*
D03*
Y165354D02*
D03*
X5906Y163386D02*
D03*
Y167323D02*
D03*
Y171260D02*
D03*
Y175197D02*
D03*
X13780D02*
D03*
Y171260D02*
D03*
Y167323D02*
D03*
Y163386D02*
D03*
X29528Y185039D02*
D03*
Y181102D02*
D03*
X25591Y179134D02*
D03*
Y190945D02*
D03*
X33465D02*
D03*
Y187008D02*
D03*
Y183071D02*
D03*
Y179134D02*
D03*
X29528Y133858D02*
D03*
Y137795D02*
D03*
Y129921D02*
D03*
X25591Y127953D02*
D03*
Y131890D02*
D03*
Y135827D02*
D03*
Y139764D02*
D03*
X33465D02*
D03*
Y135827D02*
D03*
Y131890D02*
D03*
Y127953D02*
D03*
X29528Y86614D02*
D03*
Y90551D02*
D03*
Y82677D02*
D03*
X25591Y80709D02*
D03*
Y84646D02*
D03*
Y88583D02*
D03*
Y92520D02*
D03*
X33465D02*
D03*
Y88583D02*
D03*
Y84646D02*
D03*
Y80709D02*
D03*
X9843Y118110D02*
D03*
Y122047D02*
D03*
Y114173D02*
D03*
X5906Y112205D02*
D03*
Y116142D02*
D03*
Y120079D02*
D03*
Y124016D02*
D03*
X13780D02*
D03*
Y120079D02*
D03*
Y116142D02*
D03*
Y112205D02*
D03*
X9843Y70866D02*
D03*
Y74803D02*
D03*
Y66929D02*
D03*
X5906Y64961D02*
D03*
Y68898D02*
D03*
Y72835D02*
D03*
Y76772D02*
D03*
X13780D02*
D03*
Y72835D02*
D03*
Y68898D02*
D03*
Y64961D02*
D03*
X33465Y41339D02*
D03*
Y49213D02*
D03*
Y45276D02*
D03*
Y37402D02*
D03*
X25591Y41339D02*
D03*
Y45276D02*
D03*
Y49213D02*
D03*
X29528Y47244D02*
D03*
Y43307D02*
D03*
Y39370D02*
D03*
X25591Y37402D02*
D03*
X13780Y21654D02*
D03*
Y25591D02*
D03*
Y29528D02*
D03*
Y33465D02*
D03*
X5906D02*
D03*
Y29528D02*
D03*
Y25591D02*
D03*
Y21654D02*
D03*
X9843Y23622D02*
D03*
Y31496D02*
D03*
Y27559D02*
D03*
X35433Y3937D02*
D03*
X31496D02*
D03*
X27559D02*
D03*
X23622D02*
D03*
X25591Y7874D02*
D03*
X29528D02*
D03*
X33465D02*
D03*
X35433Y11811D02*
D03*
X31496D02*
D03*
X27559D02*
D03*
X23622D02*
D03*
X15748Y3937D02*
D03*
X11811D02*
D03*
X7874D02*
D03*
X5906Y7874D02*
D03*
X13780D02*
D03*
X15748Y11811D02*
D03*
X11811D02*
D03*
X7874D02*
D03*
X3937D02*
D03*
Y3937D02*
D03*
X9843Y7874D02*
D03*
X179134Y187008D02*
D03*
Y183071D02*
D03*
X183071Y188976D02*
D03*
X166339Y146653D02*
D03*
X160433D02*
D03*
Y152559D02*
D03*
X166339D02*
D03*
X169291Y149606D02*
D03*
Y143701D02*
D03*
X163386D02*
D03*
X157480D02*
D03*
Y149606D02*
D03*
X169291Y155512D02*
D03*
X157480D02*
D03*
X163386D02*
D03*
Y149606D02*
D03*
Y169291D02*
D03*
Y173228D02*
D03*
Y165354D02*
D03*
X159449Y163386D02*
D03*
Y167323D02*
D03*
Y171260D02*
D03*
Y175197D02*
D03*
X167323D02*
D03*
Y171260D02*
D03*
Y167323D02*
D03*
Y163386D02*
D03*
X183071Y185039D02*
D03*
Y181102D02*
D03*
X179134Y179134D02*
D03*
Y190945D02*
D03*
X187008D02*
D03*
Y187008D02*
D03*
Y183071D02*
D03*
Y179134D02*
D03*
X183071Y133858D02*
D03*
Y137795D02*
D03*
Y129921D02*
D03*
X179134Y127953D02*
D03*
Y131890D02*
D03*
Y135827D02*
D03*
Y139764D02*
D03*
X187008D02*
D03*
Y135827D02*
D03*
Y131890D02*
D03*
Y127953D02*
D03*
X183071Y86614D02*
D03*
Y90551D02*
D03*
Y82677D02*
D03*
X179134Y80709D02*
D03*
Y84646D02*
D03*
Y88583D02*
D03*
Y92520D02*
D03*
X187008D02*
D03*
Y88583D02*
D03*
Y84646D02*
D03*
Y80709D02*
D03*
X163386Y118110D02*
D03*
Y122047D02*
D03*
Y114173D02*
D03*
X159449Y112205D02*
D03*
Y116142D02*
D03*
Y120079D02*
D03*
Y124016D02*
D03*
X167323D02*
D03*
Y120079D02*
D03*
Y116142D02*
D03*
Y112205D02*
D03*
X163386Y70866D02*
D03*
Y74803D02*
D03*
Y66929D02*
D03*
X159449Y64961D02*
D03*
Y68898D02*
D03*
Y72835D02*
D03*
Y76772D02*
D03*
X167323D02*
D03*
Y72835D02*
D03*
Y68898D02*
D03*
Y64961D02*
D03*
X187008Y41339D02*
D03*
Y49213D02*
D03*
Y45276D02*
D03*
Y37402D02*
D03*
X179134Y41339D02*
D03*
Y45276D02*
D03*
Y49213D02*
D03*
X183071Y47244D02*
D03*
Y43307D02*
D03*
Y39370D02*
D03*
X179134Y37402D02*
D03*
X167323Y21654D02*
D03*
Y25591D02*
D03*
Y29528D02*
D03*
Y33465D02*
D03*
X159449D02*
D03*
Y29528D02*
D03*
Y25591D02*
D03*
Y21654D02*
D03*
X163386Y23622D02*
D03*
Y31496D02*
D03*
Y27559D02*
D03*
X188976Y3937D02*
D03*
X185039D02*
D03*
X181102D02*
D03*
X177165D02*
D03*
X179134Y7874D02*
D03*
X183071D02*
D03*
X187008D02*
D03*
X188976Y11811D02*
D03*
X185039D02*
D03*
X181102D02*
D03*
X177165D02*
D03*
X169291Y3937D02*
D03*
X165354D02*
D03*
X161417D02*
D03*
X159449Y7874D02*
D03*
X167323D02*
D03*
X169291Y11811D02*
D03*
X165354D02*
D03*
X161417D02*
D03*
X157480D02*
D03*
Y3937D02*
D03*
X163386Y7874D02*
D03*
D14*
X114091Y138036D02*
G03*
X112530Y142479I-7792J-240D01*
G01*
X80422Y171053D02*
G03*
X80381Y171185I-1146J-284D01*
G01*
X92610Y115402D02*
G03*
X92664Y115378I499J1070D01*
G01*
X92374Y115529D02*
G03*
X92602Y115405I1327J2188D01*
G01*
X93689Y117762D02*
G03*
X93700Y117722I1145J291D01*
G01*
X80217Y172102D02*
G03*
X80381Y171185I2559J-16D01*
G01*
X60489Y57142D02*
G03*
X60591Y57118I1085J4314D01*
G01*
X58166Y58598D02*
G03*
X60489Y57142I3409J2859D01*
G01*
X61808Y85899D02*
G03*
X58166Y84316I-233J-4443D01*
G01*
X80577Y178396D02*
G03*
X80216Y177087I2198J-1310D01*
G01*
X6639Y186825D02*
G03*
X7559Y188524I-1107J1698D01*
G01*
Y189823D02*
G03*
X6660Y191507I-2028J0D01*
G01*
X39869Y185090D02*
G03*
X45899Y182897I4069J1800D01*
G01*
X36326Y193098D02*
G03*
X33465Y194882I-2862J-1403D01*
G01*
X53512Y186318D02*
G03*
X51971Y185880I425J-4428D01*
G01*
X26168Y194882D02*
G03*
X22137Y191690I-2J-4139D01*
G01*
X114091Y138036D02*
X114961Y109843D01*
X86516Y177087D02*
X112530Y142479D01*
X84646Y177087D02*
X86516D01*
X80422Y171053D02*
X93689Y117762D01*
X92664Y115378D02*
X123228Y102756D01*
X93700Y117722D02*
X93701Y117718D01*
X92602Y115405D02*
X92610Y115402D01*
X61808Y85899D02*
X123228Y82677D01*
X61575Y81457D02*
X123228Y72835D01*
X61575Y61457D02*
X123228Y52756D01*
X60591Y57118D02*
X123228Y42913D01*
X68898Y88583D02*
X70866Y118110D01*
X61575Y134213D02*
X92374Y115529D01*
X80216Y177087D02*
X80217Y172102D01*
X80217Y172102D01*
X82776Y182087D02*
X84646D01*
X80577Y178396D02*
X82776Y182087D01*
X51575Y76457D02*
X58166Y84316D01*
X51575Y66457D02*
X58166Y58598D01*
X22137Y191690D02*
X22137Y191690D01*
X21457Y186417D02*
X22137Y191690D01*
X45899Y182897D02*
X51971Y185880D01*
X36326Y193098D02*
X36330Y193090D01*
X36326Y193098D02*
X36326Y193098D01*
X39869Y185090D01*
X53512Y186318D02*
X61516Y187087D01*
X63386D01*
X20079Y185236D02*
X21457Y186417D01*
X26168Y194882D02*
X33465D01*
X53937Y181890D02*
X61516Y182087D01*
X63386D01*
X53937Y171890D02*
X61516Y177087D01*
X63386D01*
X5531Y192264D02*
X6660Y191507D01*
X7559Y188524D02*
Y189823D01*
X4213Y185433D02*
X5591Y186142D01*
X6639Y186825D01*
X4213Y192913D02*
X5531Y192264D01*
X13780Y164173D02*
Y167323D01*
X13090Y163386D02*
X13780D01*
X12480Y164173D02*
X13090Y163386D01*
X8090Y164499D02*
X8214D01*
X7480Y164173D02*
X8090Y164499D01*
X8214D02*
X8484Y164758D01*
X8877Y165354D02*
X9843D01*
X8570Y164758D02*
X8877Y165354D01*
X8484Y164758D02*
X8570D01*
X267634Y138036D02*
G03*
X266074Y142479I-7792J-240D01*
G01*
X233965Y171053D02*
G03*
X233924Y171185I-1146J-284D01*
G01*
X246153Y115402D02*
G03*
X246207Y115378I499J1070D01*
G01*
X245917Y115529D02*
G03*
X246145Y115405I1327J2188D01*
G01*
X247233Y117762D02*
G03*
X247243Y117722I1145J291D01*
G01*
X233760Y172102D02*
G03*
X233924Y171185I2559J-16D01*
G01*
X214033Y57142D02*
G03*
X214134Y57118I1085J4314D01*
G01*
X211709Y58598D02*
G03*
X214033Y57142I3409J2859D01*
G01*
X215351Y85899D02*
G03*
X211709Y84316I-233J-4443D01*
G01*
X234120Y178396D02*
G03*
X233760Y177087I2198J-1310D01*
G01*
X160182Y186825D02*
G03*
X161102Y188524I-1107J1698D01*
G01*
Y189823D02*
G03*
X160204Y191507I-2028J0D01*
G01*
X193412Y185090D02*
G03*
X199442Y182897I4069J1800D01*
G01*
X189869Y193098D02*
G03*
X187008Y194882I-2862J-1403D01*
G01*
X207055Y186318D02*
G03*
X205514Y185880I425J-4428D01*
G01*
X179711Y194882D02*
G03*
X175680Y191690I-2J-4139D01*
G01*
X267634Y138036D02*
X268504Y109843D01*
X240059Y177087D02*
X266074Y142479D01*
X238189Y177087D02*
X240059D01*
X233965Y171053D02*
X247233Y117762D01*
X246207Y115378D02*
X276772Y102756D01*
X247243Y117722D02*
X247245Y117718D01*
X246145Y115405D02*
X246153Y115402D01*
X215351Y85899D02*
X276772Y82677D01*
X215118Y81457D02*
X276772Y72835D01*
X215118Y61457D02*
X276772Y52756D01*
X214134Y57118D02*
X276772Y42913D01*
X222441Y88583D02*
X224409Y118110D01*
X215118Y134213D02*
X245917Y115529D01*
X233760Y177087D02*
X233760Y172102D01*
X233760Y172102D01*
X236319Y182087D02*
X238189D01*
X234120Y178396D02*
X236319Y182087D01*
X205118Y76457D02*
X211709Y84316D01*
X205118Y66457D02*
X211709Y58598D01*
X175680Y191690D02*
X175680Y191690D01*
X175000Y186417D02*
X175680Y191690D01*
X199442Y182897D02*
X205514Y185880D01*
X189869Y193098D02*
X189874Y193090D01*
X189869Y193098D02*
X189869Y193098D01*
X193412Y185090D01*
X207055Y186318D02*
X215059Y187087D01*
X216929D01*
X173622Y185236D02*
X175000Y186417D01*
X179711Y194882D02*
X187008D01*
X207480Y181890D02*
X215059Y182087D01*
X216929D01*
X207480Y171890D02*
X215059Y177087D01*
X216929D01*
X159075Y192264D02*
X160204Y191507D01*
X161102Y188524D02*
Y189823D01*
X157756Y185433D02*
X159134Y186142D01*
X160182Y186825D01*
X157756Y192913D02*
X159075Y192264D01*
X167323Y164173D02*
Y167323D01*
X166633Y163386D02*
X167323D01*
X166024Y164173D02*
X166633Y163386D01*
X161633Y164499D02*
X161757D01*
X161024Y164173D02*
X161633Y164499D01*
X161757D02*
X162027Y164758D01*
X162420Y165354D02*
X163386D01*
X162113Y164758D02*
X162420Y165354D01*
X162027Y164758D02*
X162113D01*
D19*
X20079Y185236D02*
D03*
Y178543D02*
D03*
X173622Y185236D02*
D03*
Y178543D02*
D03*
D24*
X126378Y189370D02*
D03*
X100394D02*
D03*
X279921D02*
D03*
X253937D02*
D03*
D25*
X51575Y43701D02*
D03*
X61575Y38701D02*
D03*
X51575Y33701D02*
D03*
X61575Y28701D02*
D03*
X51575Y23701D02*
D03*
X61575Y18701D02*
D03*
X51575Y13701D02*
D03*
X61575Y8701D02*
D03*
Y61457D02*
D03*
X51575Y66457D02*
D03*
X61575Y71457D02*
D03*
X51575Y76457D02*
D03*
X61575Y81457D02*
D03*
X51575Y86457D02*
D03*
X61575Y91457D02*
D03*
X51575Y96457D02*
D03*
X53937Y171890D02*
D03*
X43937Y176890D02*
D03*
X53937Y181890D02*
D03*
X43937Y186890D02*
D03*
X61575Y114213D02*
D03*
X51575Y119213D02*
D03*
X61575Y124213D02*
D03*
X51575Y129213D02*
D03*
X61575Y134213D02*
D03*
X51575Y139213D02*
D03*
X61575Y144213D02*
D03*
X51575Y149213D02*
D03*
X205118Y43701D02*
D03*
X215118Y38701D02*
D03*
X205118Y33701D02*
D03*
X215118Y28701D02*
D03*
X205118Y23701D02*
D03*
X215118Y18701D02*
D03*
X205118Y13701D02*
D03*
X215118Y8701D02*
D03*
Y61457D02*
D03*
X205118Y66457D02*
D03*
X215118Y71457D02*
D03*
X205118Y76457D02*
D03*
X215118Y81457D02*
D03*
X205118Y86457D02*
D03*
X215118Y91457D02*
D03*
X205118Y96457D02*
D03*
X207480Y171890D02*
D03*
X197480Y176890D02*
D03*
X207480Y181890D02*
D03*
X197480Y186890D02*
D03*
X215118Y114213D02*
D03*
X205118Y119213D02*
D03*
X215118Y124213D02*
D03*
X205118Y129213D02*
D03*
X215118Y134213D02*
D03*
X205118Y139213D02*
D03*
X215118Y144213D02*
D03*
X205118Y149213D02*
D03*
D26*
X20079Y178543D02*
D03*
X115748Y187008D02*
D03*
X120472D02*
D03*
Y191732D02*
D03*
X115748D02*
D03*
X106299Y187008D02*
D03*
X111024Y191732D02*
D03*
Y187008D02*
D03*
X106299Y191732D02*
D03*
X102756Y181102D02*
D03*
X124016D02*
D03*
X127953Y178347D02*
D03*
X98819D02*
D03*
X114961Y109843D02*
D03*
X130315Y117323D02*
D03*
Y120866D02*
D03*
X125591Y163583D02*
D03*
X84252Y191929D02*
D03*
X117717Y111417D02*
D03*
X96850Y118110D02*
D03*
X107613Y174600D02*
D03*
X104331Y172441D02*
D03*
X106299Y166535D02*
D03*
X125591Y170276D02*
D03*
X123228Y106299D02*
D03*
Y102756D02*
D03*
X93701Y117718D02*
D03*
X123228Y86221D02*
D03*
Y82677D02*
D03*
Y75984D02*
D03*
Y72835D02*
D03*
Y56299D02*
D03*
Y52756D02*
D03*
Y46063D02*
D03*
Y42913D02*
D03*
X123622Y25984D02*
D03*
X65748Y89370D02*
D03*
X67716Y119291D02*
D03*
X70866Y118110D02*
D03*
X68898Y88583D02*
D03*
X135433Y141339D02*
D03*
X123622D02*
D03*
X87795Y121653D02*
D03*
X75590D02*
D03*
X86516Y172087D02*
D03*
X123622Y21654D02*
D03*
X61024Y172047D02*
D03*
X90945Y191929D02*
D03*
X58661Y192913D02*
D03*
X2362Y189370D02*
D03*
X10827Y180315D02*
D03*
X173622Y178543D02*
D03*
X269291Y187008D02*
D03*
X274016D02*
D03*
Y191732D02*
D03*
X269291D02*
D03*
X259842Y187008D02*
D03*
X264567Y191732D02*
D03*
Y187008D02*
D03*
X259842Y191732D02*
D03*
X256299Y181102D02*
D03*
X277559D02*
D03*
X281496Y178347D02*
D03*
X252362D02*
D03*
X268504Y109843D02*
D03*
X283858Y117323D02*
D03*
Y120866D02*
D03*
X279134Y163583D02*
D03*
X237795Y191929D02*
D03*
X271260Y111417D02*
D03*
X250394Y118110D02*
D03*
X261156Y174600D02*
D03*
X257874Y172441D02*
D03*
X259842Y166535D02*
D03*
X279134Y170276D02*
D03*
X276772Y106299D02*
D03*
Y102756D02*
D03*
X247245Y117718D02*
D03*
X276772Y86221D02*
D03*
Y82677D02*
D03*
Y75984D02*
D03*
Y72835D02*
D03*
Y56299D02*
D03*
Y52756D02*
D03*
Y46063D02*
D03*
Y42913D02*
D03*
X277165Y25984D02*
D03*
X219291Y89370D02*
D03*
X221260Y119291D02*
D03*
X224409Y118110D02*
D03*
X222441Y88583D02*
D03*
X288976Y141339D02*
D03*
X277165D02*
D03*
X241339Y121653D02*
D03*
X229134D02*
D03*
X240059Y172087D02*
D03*
X277165Y21654D02*
D03*
X214567Y172047D02*
D03*
X244488Y191929D02*
D03*
X212205Y192913D02*
D03*
X155905Y189370D02*
D03*
X164370Y180315D02*
D03*
D27*
X25370Y190189D02*
G03*
X25209Y189294I4157J-1213D01*
G01*
X23623Y181426D02*
G03*
X24794Y183672I-2018J2482D01*
G01*
X61575Y38701D02*
X123622Y21654D01*
X25591Y190945D02*
X33465D01*
Y187008D02*
Y190945D01*
Y183071D02*
Y187008D01*
Y179134D02*
Y183071D01*
X25370Y190189D02*
X25591Y190945D01*
X25043Y187048D02*
X25209Y189294D01*
X24794Y183672D02*
X25043Y187048D01*
X20079Y178543D02*
X23623Y181426D01*
X178913Y190189D02*
G03*
X178752Y189294I4157J-1213D01*
G01*
X177166Y181426D02*
G03*
X178338Y183672I-2018J2482D01*
G01*
X215118Y38701D02*
X277165Y21654D01*
X179134Y190945D02*
X187008D01*
Y187008D02*
Y190945D01*
Y183071D02*
Y187008D01*
Y179134D02*
Y183071D01*
X178913Y190189D02*
X179134Y190945D01*
X178586Y187048D02*
X178752Y189294D01*
X178338Y183672D02*
X178586Y187048D01*
X173622Y178543D02*
X177166Y181426D01*
D28*
X90945Y191929D02*
D03*
X84252D02*
D03*
X65354Y192913D02*
D03*
X58661D02*
D03*
X4134Y180315D02*
D03*
X10827D02*
D03*
X244488Y191929D02*
D03*
X237795D02*
D03*
X218898Y192913D02*
D03*
X212205D02*
D03*
X157677Y180315D02*
D03*
X164370D02*
D03*
D29*
X63386Y172087D02*
D03*
Y177087D02*
D03*
Y182087D02*
D03*
Y187087D02*
D03*
X84646Y172087D02*
D03*
Y177087D02*
D03*
Y182087D02*
D03*
X216929Y172087D02*
D03*
Y177087D02*
D03*
Y182087D02*
D03*
Y187087D02*
D03*
X238189Y172087D02*
D03*
Y177087D02*
D03*
Y182087D02*
D03*
D30*
X84646Y187087D02*
D03*
X238189D02*
D03*
D31*
X4213Y185433D02*
D03*
X157756D02*
D03*
D32*
X4213Y189173D02*
D03*
Y192913D02*
D03*
X14567Y185433D02*
D03*
Y192913D02*
D03*
X157756Y189173D02*
D03*
Y192913D02*
D03*
X168110Y185433D02*
D03*
Y192913D02*
D03*
D33*
X9980Y149140D02*
D03*
X163524D02*
D03*
D34*
X17480Y164173D02*
D03*
X12480D02*
D03*
X7480D02*
D03*
X2480D02*
D03*
X171024D02*
D03*
X166024D02*
D03*
X161024D02*
D03*
X156024D02*
D03*
D35*
X15354Y185315D02*
X19291D01*
X14567Y185433D02*
X15354Y185315D01*
X19291D02*
X20079Y185236D01*
X4134Y180315D02*
X4173Y181102D01*
Y185315D02*
X4213Y185433D01*
X4173Y181102D02*
Y185315D01*
X168898D02*
X172835D01*
X168110Y185433D02*
X168898Y185315D01*
X172835D02*
X173622Y185236D01*
X157677Y180315D02*
X157717Y181102D01*
Y185315D02*
X157756Y185433D01*
X157717Y181102D02*
Y185315D01*
M02*
